<svg width="21" height="24" viewBox="0 0 21 24" fill="none" xmlns="http://www.w3.org/2000/svg">
<g clip-path="url(#clip0)">
<path d="M18.7259 10.5H17.6023V7.125C17.6023 3.19687 14.4096 0 10.4865 0C6.56342 0 3.37066 3.19687 3.37066 7.125V10.5H2.2471C1.00652 10.5 0 11.5078 0 12.75V21.75C0 22.9922 1.00652 24 2.2471 24H18.7259C19.9665 24 20.973 22.9922 20.973 21.75V12.75C20.973 11.5078 19.9665 10.5 18.7259 10.5ZM13.8571 10.5H7.11583V7.125C7.11583 5.26406 8.62794 3.75 10.4865 3.75C12.345 3.75 13.8571 5.26406 13.8571 7.125V10.5Z" fill="#C4C4C4"/>
</g>
<defs>
<clipPath id="clip0">
<rect width="20.973" height="24" fill="white"/>
</clipPath>
</defs>
</svg>
