<svg width="22" height="24" viewBox="0 0 22 24" fill="none" xmlns="http://www.w3.org/2000/svg">
<g clip-path="url(#clip0)">
<path d="M10.5098 12C13.827 12 16.5154 9.31406 16.5154 6C16.5154 2.68594 13.827 0 10.5098 0C7.19265 0 4.5042 2.68594 4.5042 6C4.5042 9.31406 7.19265 12 10.5098 12ZM14.7137 13.5H13.9302C12.8886 13.9781 11.7297 14.25 10.5098 14.25C9.28992 14.25 8.13571 13.9781 7.08943 13.5H6.30588C2.82451 13.5 0 16.3219 0 19.8V21.75C0 22.9922 1.00875 24 2.2521 24H18.7675C20.0109 24 21.0196 22.9922 21.0196 21.75V19.8C21.0196 16.3219 18.1951 13.5 14.7137 13.5Z" fill="#C4C4C4"/>
</g>
<defs>
<clipPath id="clip0">
<rect width="21.0196" height="24" fill="white"/>
</clipPath>
</defs>
</svg>
