<svg width="150" height="150" viewBox="0 0 150 150" fill="none" xmlns="http://www.w3.org/2000/svg">
<g clip-path="url(#clip0)">
<g filter="url(#filter0_d)">
<path d="M145.312 37.5V42.1875C145.312 42.8091 145.066 43.4052 144.626 43.8448C144.186 44.2843 143.59 44.5313 142.969 44.5313H135.938V48.0469C135.938 49.9884 134.363 51.5625 132.422 51.5625H17.5781C15.6366 51.5625 14.0625 49.9884 14.0625 48.0469V44.5313H7.03125C6.40965 44.5313 5.81351 44.2843 5.37397 43.8448C4.93443 43.4052 4.6875 42.8091 4.6875 42.1875V37.5C4.6875 37.0363 4.82504 36.5831 5.08272 36.1976C5.34039 35.8121 5.70661 35.5117 6.13506 35.3344L74.1038 9.55313C74.6776 9.31552 75.3223 9.31552 75.8962 9.55313L143.865 35.3344C144.293 35.5117 144.66 35.8121 144.917 36.1976C145.175 36.5831 145.312 37.0363 145.312 37.5ZM138.281 126.563H11.7188C7.83545 126.563 4.6875 129.71 4.6875 133.594V138.281C4.6875 138.903 4.93443 139.499 5.37397 139.939C5.81351 140.378 6.40965 140.625 7.03125 140.625H142.969C143.59 140.625 144.186 140.378 144.626 139.939C145.066 139.499 145.312 138.903 145.312 138.281V133.594C145.312 129.71 142.165 126.563 138.281 126.563ZM28.125 56.25V112.5H17.5781C15.6366 112.5 14.0625 114.074 14.0625 116.016V121.875H135.938V116.016C135.938 114.074 134.363 112.5 132.422 112.5H121.875V56.25H103.125V112.5H84.375V56.25H65.625V112.5H46.875V56.25H28.125Z" fill="#3A3768"/>
</g>
</g>
<defs>
<filter id="filter0_d" x="4.6875" y="9.37492" width="149.625" height="140.25" filterUnits="userSpaceOnUse" color-interpolation-filters="sRGB">
<feFlood flood-opacity="0" result="BackgroundImageFix"/>
<feColorMatrix in="SourceAlpha" type="matrix" values="0 0 0 0 0 0 0 0 0 0 0 0 0 0 0 0 0 0 127 0"/>
<feOffset dx="5" dy="5"/>
<feGaussianBlur stdDeviation="2"/>
<feColorMatrix type="matrix" values="0 0 0 0 0 0 0 0 0 0 0 0 0 0 0 0 0 0 0.25 0"/>
<feBlend mode="normal" in2="BackgroundImageFix" result="effect1_dropShadow"/>
<feBlend mode="normal" in="SourceGraphic" in2="effect1_dropShadow" result="shape"/>
</filter>
<clipPath id="clip0">
<rect width="150" height="150" fill="white"/>
</clipPath>
</defs>
</svg>
