<svg width="300" height="250" viewBox="0 0 300 250" fill="none" xmlns="http://www.w3.org/2000/svg">
<g clip-path="url(#clip0)">
<path opacity="0.1" d="M174.302 33.1042C155.07 32.4356 136.752 26.2278 119.261 19.4346C101.77 12.6414 84.4454 5.11422 65.6735 1.51555C53.5997 -0.79937 39.7904 -1.12625 30.0642 5.346C20.7005 11.5865 17.6754 22.329 16.0499 32.3078C14.8256 39.8142 14.1064 47.7158 17.4584 54.7408C19.7882 59.6202 23.9188 63.7211 26.7775 68.3955C36.7237 84.6564 29.6927 104.709 18.9175 120.587C13.8657 128.037 7.99671 135.148 4.09493 143.07C0.193158 150.993 -1.61063 160.083 1.80379 168.172C5.18553 176.195 13.2476 182.21 21.9813 186.444C39.7191 195.047 60.6127 197.508 81.0012 198.902C126.12 201.989 171.476 200.652 216.714 199.315C233.456 198.818 250.269 198.316 266.738 195.728C275.885 194.29 285.326 192.01 291.968 186.501C300.395 179.509 302.484 167.669 296.835 158.9C287.362 144.193 261.175 140.541 254.546 124.759C250.902 116.07 254.644 106.394 259.942 98.3349C271.306 81.0518 290.351 65.8875 291.352 46.1319C292.042 32.5634 282.886 18.974 268.729 12.5523C253.892 5.82444 233.313 6.66839 222.372 17.8091C211.094 29.2797 191.285 33.6926 174.302 33.1042Z" fill="#E05ABC"/>
<path opacity="0.1" d="M143.676 244.302C193.564 244.302 234.006 238.832 234.006 232.083C234.006 225.334 193.564 219.864 143.676 219.864C93.7888 219.864 53.347 225.334 53.347 232.083C53.347 238.832 93.7888 244.302 143.676 244.302Z" fill="#E05ABC"/>
<path d="M98.9589 195.704C98.9589 195.704 105.199 194.706 108.944 199.115C108.944 199.115 106.198 201.279 100.29 198.283L98.9589 195.704Z" fill="#E05ABC"/>
<path d="M98.2933 195.606C98.2933 195.606 94.3113 200.533 96.2637 205.962C96.2637 205.962 99.5087 204.663 99.8623 198.049L98.2933 195.606Z" fill="#E05ABC"/>
<path d="M94.7273 187.55C94.7273 187.55 97.2235 182.973 107.208 189.38C107.208 189.38 105.877 192.459 101.467 192.209C97.0571 191.96 95.8773 189.963 94.7273 187.55Z" fill="#E05ABC"/>
<path d="M94.0706 187.22C94.0706 187.22 88.891 186.626 88.3888 198.482C88.3888 198.482 91.6725 199.166 94.0052 195.413C96.338 191.66 95.3722 189.562 94.0706 187.22Z" fill="#E05ABC"/>
<path d="M91.0514 177.764C91.0514 177.764 93.9636 169.69 104.534 175.431C104.534 175.431 102.121 182.84 92.1331 180.51L91.0514 177.764Z" fill="#E05ABC"/>
<path d="M87.8063 165.696C87.8063 165.696 93.2979 157.542 103.036 165.102C103.036 165.102 99.6246 172.757 88.6384 168.597L87.8063 165.696Z" fill="#E05ABC"/>
<path d="M86.6414 154.214C86.6414 154.214 93.0483 146.725 102.688 154.214C102.688 154.214 96.6113 160.787 86.6414 156.128V154.214Z" fill="#E05ABC"/>
<path d="M85.6429 143.064C85.6429 143.064 92.133 135.24 101.372 142.648C101.372 142.648 94.0468 149.554 85.6429 144.895V143.064Z" fill="#E05ABC"/>
<path d="M86.2254 133.16C86.2254 133.16 93.0602 123.092 101.705 129.915C101.705 129.915 94.3796 138.571 86.2254 135.073V133.16Z" fill="#E05ABC"/>
<path d="M87.8063 121.594C87.8063 121.594 95.0453 111.609 103.452 119.264C103.452 119.264 94.8789 127.918 87.8063 123.425V121.594Z" fill="#E05ABC"/>
<path d="M90.2223 111.256C90.2223 111.256 98.7895 101.874 106.269 105.609C106.269 105.609 97.3364 115.573 89.8478 113.743L90.2223 111.256Z" fill="#E05ABC"/>
<path d="M93.2147 101.458C93.2147 101.458 103.119 89.9727 108.86 93.8002C108.86 93.8002 101.574 102.715 92.5164 103.621L93.2147 101.458Z" fill="#E05ABC"/>
<path d="M97.5385 90.0886C97.5385 90.0886 106.198 80.7041 112.522 83.0339C112.522 83.0339 105.116 92.772 96.3766 93.0216L97.5385 90.0886Z" fill="#E05ABC"/>
<path d="M101.455 79.456C101.455 79.456 111.024 70.4698 115.184 72.0507C115.184 72.0507 108.278 82.0354 101.039 81.453L101.455 79.456Z" fill="#E05ABC"/>
<path d="M105.283 69.6377C105.283 69.6377 113.52 58.9041 118.013 59.7361C118.013 59.7361 113.021 69.3048 105.283 70.7312V69.6377Z" fill="#E05ABC"/>
<path d="M109.434 56.4079C109.434 56.4079 116.718 48.1764 120.649 48.1972C120.649 48.1972 114.902 59.1923 109.137 59.0913L109.434 56.4079Z" fill="#E05ABC"/>
<path d="M111.897 47.585L118.928 30.4446C118.928 30.4446 119.282 45.9387 111 50.7647L111.897 47.585Z" fill="#E05ABC"/>
<path d="M114.75 28.6824C114.75 28.6824 115.915 14.3709 115.166 13.206C115.166 13.206 120.197 25.0926 114.703 35.006L114.75 28.6824Z" fill="#E05ABC"/>
<path d="M90.7809 177.571C90.7809 177.571 83.4855 173.051 78.7665 184.109C78.7665 184.109 85.2566 188.417 91.6368 180.391L90.7809 177.571Z" fill="#E05ABC"/>
<path d="M87.5745 165.236C87.5745 165.236 78.6298 161.156 74.2883 172.7C74.2883 172.7 81.2003 177.455 88.3887 168.154L87.5745 165.236Z" fill="#E05ABC"/>
<path d="M86.2254 154.9C86.2254 154.9 79.8186 147.412 70.1785 154.9C70.1785 154.9 76.2526 161.474 86.2254 156.814V154.9Z" fill="#E05ABC"/>
<path d="M85.426 143.064C85.426 143.064 78.933 135.24 69.6971 142.648C69.6971 142.648 77.0192 149.554 85.426 144.895V143.064Z" fill="#E05ABC"/>
<path d="M86.2254 133.445C86.2254 133.445 81.6728 122.167 71.7772 127.017C71.7772 127.017 77.1262 137.02 85.8242 135.317L86.2254 133.445Z" fill="#E05ABC"/>
<path d="M88.3799 121.538C88.3799 121.538 83.857 110.064 73.8188 115.383C73.8188 115.383 79.9642 125.9 87.9341 123.312L88.3799 121.538Z" fill="#E05ABC"/>
<path d="M91.1851 111.315C91.1851 111.315 89.4021 98.7331 81.0963 97.6068C81.0963 97.6068 82.8585 110.872 90.0766 113.579L91.1851 111.315Z" fill="#E05ABC"/>
<path d="M93.4287 101.479C93.4287 101.479 92.7303 86.3235 85.851 85.7975C85.851 85.7975 86.0827 97.2978 92.6531 103.627L93.4287 101.479Z" fill="#E05ABC"/>
<path d="M98.2546 89.6547C98.2546 89.6547 96.2012 77.0549 89.6368 75.5126C89.6368 75.5126 90.4511 87.7172 97.6038 92.7482L98.2546 89.6547Z" fill="#E05ABC"/>
<path d="M102.234 79.5481C102.234 79.5481 102.162 66.4194 98.1506 64.4908C98.1506 64.4908 95.6634 76.3774 101.072 81.2241L102.234 79.5481Z" fill="#E05ABC"/>
<path d="M105.589 69.4831C105.589 69.4831 105.024 55.9621 100.873 54.0573C100.873 54.0573 99.4493 64.7552 104.965 70.3657L105.589 69.4831Z" fill="#E05ABC"/>
<path d="M110.016 57.4777C110.016 57.4777 109.99 46.4826 107.024 43.9032C107.024 43.9032 104.076 55.9502 108.468 59.6886L110.016 57.4777Z" fill="#E05ABC"/>
<path d="M111.547 47.0442L108.664 28.7418C108.664 28.7418 104.742 43.7397 111.683 50.3457L111.547 47.0442Z" fill="#E05ABC"/>
<path d="M112.111 28.8547C112.111 28.8547 104.703 16.5551 104.858 15.1851C104.858 15.1851 105.642 28.0821 114.961 34.5009L112.111 28.8547Z" fill="#E05ABC"/>
<path d="M112.979 25.2234C112.979 25.2234 105.99 7.74709 102.828 6.33258C102.828 6.33258 112.813 11.4082 113.562 24.7241L112.979 25.2234Z" fill="#E05ABC"/>
<path d="M109.098 59.1864L108.62 59.0408C114.518 39.8053 115.992 27.5413 112.765 24.4686L113.11 24.106C116.527 27.3481 115.143 39.4695 109.098 59.1864Z" fill="#444053"/>
<path d="M92.8552 104.213L92.1509 103.963C92.7749 102.201 93.4495 100.412 94.1567 98.6469C100.314 83.3013 105.556 69.0285 108.917 58.069L109.532 57.7719C106.165 68.7521 101.018 83.5747 94.8521 98.9381C94.1478 100.685 93.4762 102.468 92.8552 104.213Z" fill="#444053"/>
<path d="M107.74 210.102C107.645 209.995 98.0823 199.231 91.4199 180.849C87.5131 170.09 85.3366 158.78 84.9714 147.34C84.5138 133.038 87.5151 117.068 92.6561 102.564L93.2147 103.217C81.6758 135.775 86.2611 163.676 92.3411 180.48C98.9381 198.693 108.388 209.344 108.483 209.448L107.74 210.102Z" fill="#444053"/>
<path d="M192.97 86.1244H191.698C191.322 86.1244 191.018 86.4291 191.018 86.8049V107.143C191.018 107.519 191.322 107.823 191.698 107.823H192.97C193.346 107.823 193.651 107.519 193.651 107.143V86.8049C193.651 86.4291 193.346 86.1244 192.97 86.1244Z" fill="#3A3768"/>
<path d="M104.32 69.1236H104.204C103.828 69.1236 103.523 69.4282 103.523 69.8041V75.5869C103.523 75.9627 103.828 76.2674 104.204 76.2674H104.32C104.696 76.2674 105 75.9627 105 75.5869V69.8041C105 69.4282 104.696 69.1236 104.32 69.1236Z" fill="#3A3768"/>
<path d="M104.454 82.2048H104.15C103.775 82.2048 103.47 82.5094 103.47 82.8853V93.9577C103.47 94.3335 103.775 94.6382 104.15 94.6382H104.454C104.829 94.6382 105.134 94.3335 105.134 93.9577V82.8853C105.134 82.5094 104.829 82.2048 104.454 82.2048Z" fill="#3A3768"/>
<path d="M104.4 98.9886H104.177C103.801 98.9886 103.497 99.2933 103.497 99.6692V110.849C103.497 111.224 103.801 111.529 104.177 111.529H104.4C104.776 111.529 105.081 111.224 105.081 110.849V99.6692C105.081 99.2933 104.776 98.9886 104.4 98.9886Z" fill="#3A3768"/>
<path d="M180.852 45.5168H115.945C109.546 45.5168 104.358 50.7042 104.358 57.1032V212.94C104.358 219.339 109.546 224.526 115.945 224.526H180.852C187.251 224.526 192.438 219.339 192.438 212.94V57.1032C192.438 50.7042 187.251 45.5168 180.852 45.5168Z" fill="#3A3768"/>
<path d="M180.014 50.1674H169.91V51.3828C169.91 52.1393 169.761 52.8885 169.471 53.5874C169.182 54.2863 168.757 54.9213 168.222 55.4561C167.687 55.9909 167.052 56.4151 166.353 56.7043C165.654 56.9936 164.905 57.1423 164.148 57.1419H132.016C131.259 57.1423 130.51 56.9936 129.811 56.7043C129.112 56.4151 128.476 55.9909 127.941 55.4561C127.406 54.9213 126.982 54.2863 126.692 53.5874C126.403 52.8885 126.254 52.1393 126.254 51.3828V50.1674H116.795C114.94 50.1674 113.16 50.9044 111.848 52.2163C110.537 53.5281 109.799 55.3074 109.799 57.1627V212.868C109.799 214.724 110.537 216.503 111.848 217.815C113.16 219.127 114.94 219.864 116.795 219.864H180.014C181.869 219.864 183.648 219.127 184.96 217.815C186.272 216.503 187.009 214.724 187.009 212.868V57.1746C187.01 56.2549 186.831 55.344 186.48 54.4939C186.129 53.6439 185.614 52.8713 184.964 52.2205C184.315 51.5696 183.543 51.0533 182.693 50.701C181.844 50.3487 180.933 50.1674 180.014 50.1674Z" fill="#E05ABC"/>
<path d="M151.052 50.8628H141.052C140.417 50.8628 139.902 51.3777 139.902 52.0128V52.2089C139.902 52.8441 140.417 53.359 141.052 53.359H151.052C151.687 53.359 152.202 52.8441 152.202 52.2089V52.0128C152.202 51.3777 151.687 50.8628 151.052 50.8628Z" fill="#E6E8EC"/>
<path d="M155.48 53.5283C156.263 53.5283 156.897 52.8937 156.897 52.1109C156.897 51.328 156.263 50.6934 155.48 50.6934C154.697 50.6934 154.062 51.328 154.062 52.1109C154.062 52.8937 154.697 53.5283 155.48 53.5283Z" fill="#E6E8EC"/>
<path d="M222.933 37.6657C222.933 37.6657 197.912 36.1561 200.86 53.6888C200.86 53.6888 200.265 56.7882 203.083 58.1938C203.083 58.1938 203.127 56.8952 205.65 57.338C206.548 57.4869 207.461 57.5308 208.369 57.4687C209.595 57.3882 210.761 56.9116 211.691 56.1107C211.691 56.1107 218.725 53.2044 221.459 41.7101C221.459 41.7101 223.483 39.202 223.403 38.5572L219.18 40.361C219.18 40.361 220.624 43.4069 219.477 45.9387C219.477 45.9387 219.341 40.4709 218.529 40.5898C218.366 40.6135 216.336 41.6447 216.336 41.6447C216.336 41.6447 218.818 46.9491 216.945 50.8063C216.945 50.8063 217.656 44.2687 215.561 42.0281L212.589 43.7635C212.589 43.7635 215.489 49.2432 213.522 53.7156C213.522 53.7156 214.027 46.857 211.962 44.1855L209.27 46.2864C209.27 46.2864 211.995 51.6859 210.333 55.3945C210.333 55.3945 210.117 47.4127 208.687 46.8094C208.687 46.8094 206.331 48.8896 205.971 49.7395C205.971 49.7395 207.837 53.6621 206.678 55.7303C206.678 55.7303 205.968 50.4111 205.386 50.3814C205.386 50.3814 203.038 53.9057 202.794 56.3247C202.794 56.3247 202.895 52.7319 204.818 50.0485C204.818 50.0485 202.548 50.4378 201.222 51.9088C201.222 51.9088 201.588 49.4185 205.398 49.1986C205.398 49.1986 207.338 46.5242 207.855 46.3637C207.855 46.3637 204.069 46.0457 201.772 47.065C201.772 47.065 203.793 44.7144 208.55 45.7842L211.21 43.6119C211.21 43.6119 206.224 42.9314 204.108 43.6833C204.108 43.6833 206.542 41.6031 211.926 43.1186L214.821 41.3891C214.821 41.3891 210.568 40.4739 208.036 40.7948C208.036 40.7948 210.711 39.3536 215.671 40.9167L217.751 39.9865C217.751 39.9865 214.636 39.3744 213.724 39.2763C212.812 39.1782 212.764 38.9286 212.764 38.9286C214.737 38.5996 216.763 38.8249 218.615 39.5794C218.615 39.5794 223.008 37.942 222.933 37.6657Z" fill="#E05ABC"/>
<path d="M197.267 29.8681C197.267 29.8681 185.975 29.1875 187.294 37.11C187.294 37.11 187.03 38.5096 188.299 39.1455C188.299 39.1455 188.319 38.5512 189.461 38.7563C189.866 38.8245 190.278 38.8444 190.688 38.8157C191.242 38.7791 191.769 38.562 192.189 38.1976C192.189 38.1976 195.368 36.8841 196.604 31.6897C196.604 31.6897 197.517 30.5575 197.481 30.2663L195.573 31.0805C195.573 31.0805 196.224 32.4564 195.713 33.6004C195.713 33.6004 195.651 31.131 195.285 31.1875C195.211 31.1875 194.292 31.6659 194.292 31.6659C194.292 31.6659 195.416 34.064 194.569 35.8054C194.569 35.8054 194.89 32.8516 193.942 31.8383L192.599 32.6347C192.599 32.6347 193.909 35.11 193.021 37.1308C193.021 37.1308 193.249 34.0313 192.316 32.8248L191.101 33.7758C191.101 33.7758 192.331 36.2155 191.582 37.8915C191.582 37.8915 191.481 34.2839 190.836 34.0105C190.836 34.0105 189.773 34.9496 189.609 35.3359C189.609 35.3359 190.453 37.1189 189.93 38.0431C189.93 38.0431 189.609 35.639 189.336 35.6271C189.336 35.6271 188.275 37.2199 188.165 38.3016C188.218 37.2931 188.534 36.3158 189.08 35.4666C188.468 35.5826 187.903 35.8749 187.455 36.3076C187.455 36.3076 187.621 35.1814 189.342 35.0833C189.342 35.0833 190.233 33.8738 190.453 33.7995C190.453 33.7995 188.741 33.6569 187.704 34.1175C187.704 34.1175 188.617 33.0566 190.765 33.538L191.954 32.5574C191.954 32.5574 189.698 32.2602 188.744 32.5901C188.744 32.5901 189.844 31.651 192.278 32.3345L193.585 31.553C193.585 31.553 191.663 31.1399 190.518 31.2885C190.518 31.2885 191.728 30.6377 193.969 31.342L194.905 30.923C194.905 30.923 193.496 30.6466 193.083 30.602C192.67 30.5575 192.649 30.4446 192.649 30.4446C193.541 30.2962 194.457 30.399 195.294 30.7417C195.294 30.7417 197.303 29.9929 197.267 29.8681Z" fill="#E05ABC"/>
<path opacity="0.1" d="M179.149 67.2128H117.651V197.74H179.149V67.2128Z" fill="black"/>
<path d="M177.265 234.178C177.265 234.178 175.815 230.802 175.167 229.245C174.801 228.354 174.183 228.205 173.711 228.226L173.738 227.929L173.853 226.523L173.877 226.226C174.998 225.991 175.957 225.807 175.957 225.807L175.259 189.755C175.259 189.755 174.962 189.374 174.243 187.08C173.886 185.936 172.163 184.531 170.552 183.41C170.299 183.235 170.053 183.069 169.809 182.908C170.395 182.417 171.012 181.962 171.654 181.547C172.57 181.015 172.873 177.981 172.873 177.981L172.721 178.278C172.873 177.981 172.721 170.234 172.721 170.234L172.186 162.193C172.186 162.193 171.806 152.633 168.834 150.128C165.863 147.623 162.109 146.746 162.109 146.746L160.029 146.211L156.196 145.228C156.089 145.052 155.985 144.868 155.899 144.675C155.86 144.601 155.824 144.523 155.789 144.446C156.96 143.617 157.915 142.519 158.574 141.244C159.234 139.97 159.578 138.556 159.578 137.121C159.578 136.639 159.54 136.158 159.462 135.683C159.462 135.593 159.429 135.501 159.411 135.412C159.726 135.197 160.024 134.957 160.303 134.696C160.757 134.334 161.128 133.879 161.39 133.362C161.432 133.26 161.465 133.156 161.491 133.05C161.491 133.02 161.491 132.99 161.509 132.958C161.527 132.925 161.536 132.8 161.545 132.72C161.545 132.69 161.545 132.66 161.545 132.631C161.545 132.545 161.545 132.455 161.545 132.369C161.545 132.348 161.545 132.328 161.545 132.304C161.545 132.206 161.53 132.108 161.515 132.007C161.517 132.001 161.517 131.995 161.515 131.989C161.461 131.644 161.371 131.305 161.248 130.978C160.951 130.212 160.564 129.493 160.425 128.675C160.252 127.71 160.451 126.655 159.991 125.787C159.799 125.459 159.538 125.177 159.225 124.962C158.912 124.747 158.556 124.603 158.181 124.542C157.427 124.426 156.655 124.514 155.946 124.797C155.6 124.962 155.226 125.063 154.844 125.095C154.566 125.078 154.293 125.012 154.038 124.898C153.156 124.552 152.318 124.102 151.542 123.558C150.984 123.118 150.387 122.728 149.759 122.393C149.444 122.229 149.096 122.136 148.74 122.122C148.385 122.107 148.031 122.172 147.703 122.31C146.603 122.869 146.395 124.426 145.373 125.112C144.669 125.588 143.751 125.54 142.901 125.57C142.051 125.6 141.088 125.811 140.669 126.548C140.372 127.059 140.443 127.668 140.5 128.265L140.517 128.467C140.517 128.539 140.517 128.613 140.535 128.684C140.582 129.448 140.468 130.214 140.199 130.931C139.789 132.019 139.011 133.091 139.038 134.2C139.04 134.376 139.063 134.552 139.106 134.723C139.129 134.808 139.157 134.893 139.189 134.975C139.353 135.343 139.536 135.701 139.739 136.048L139.766 136.096C139.786 136.137 139.807 136.179 139.825 136.22C139.843 136.262 139.879 136.333 139.899 136.39C139.92 136.446 139.923 136.446 139.932 136.473C139.941 136.5 139.971 136.583 139.986 136.639C140.035 136.807 140.056 136.982 140.048 137.157C140.013 137.382 139.994 137.609 139.991 137.837C139.993 137.951 140.033 138.061 140.105 138.15C140.177 138.238 140.278 138.298 140.39 138.321C140.512 138.318 140.632 138.281 140.734 138.214C141.001 138.062 141.254 137.889 141.492 137.694C141.492 137.79 141.492 137.885 141.51 137.992C141.717 140.118 142.675 142.102 144.211 143.587C144.211 143.679 144.211 143.774 144.19 143.884C144.17 143.994 144.176 144.098 144.17 144.208L140.841 145.254C140.841 145.254 140.859 145.314 140.895 145.415L140.544 145.554C138.818 146.253 136.895 147.12 135.819 147.908C135.344 148.253 134.91 148.535 134.521 148.77C133.107 149.635 132.024 150.947 131.442 152.499L131.397 152.612C131.1 153.293 129.644 157.922 129.644 157.922C129.644 157.922 128.577 160.502 128.423 162.172C128.423 162.172 126.67 167.708 127.127 171.351C127.127 171.351 125.754 176.587 126.289 177.419C126.289 177.419 125.742 179.672 128.143 181.939C127.968 182.046 127.778 182.162 127.579 182.29C125.719 183.461 123.035 185.36 122.578 186.825C121.867 189.104 121.561 189.499 121.561 189.499L120.842 225.495C120.842 225.495 121.802 225.679 122.922 225.911L122.946 226.208L123.062 227.611L123.089 227.908C122.616 227.887 121.998 228.05 121.633 228.93C120.982 230.484 119.552 233.857 119.552 233.857C119.552 233.857 116.352 236.829 118.292 239.586C118.378 239.712 118.478 239.828 118.59 239.931C119.983 241.197 122.955 240.386 125.068 239.56C126.142 239.101 127.067 238.355 127.742 237.402C127.827 237.291 127.935 237.198 128.058 237.13C128.18 237.062 128.316 237.02 128.456 237.007C128.94 236.929 129.397 236.729 129.784 236.427C130.017 236.257 130.205 236.033 130.332 235.775C130.46 235.516 130.522 235.23 130.515 234.942C130.513 234.927 130.513 234.912 130.515 234.897L130.328 230.668C130.328 230.668 130.099 227.715 129.371 227.905L129.184 227.949L129.133 227.652L129.035 227.079L128.984 226.782H129.389C129.389 226.782 129.49 223.441 130.711 220.814C131.932 218.188 132.735 196.967 132.735 196.967C132.735 196.967 147.851 197.214 148.357 195.796C148.654 195.796 148.978 195.796 149.287 195.775C149.795 197.193 164.062 197.261 164.062 197.261C164.062 197.261 164.873 218.505 166.091 221.135C166.349 221.699 166.562 222.281 166.73 222.877C167.114 224.255 167.344 225.671 167.417 227.099H167.821L167.767 227.397L167.669 227.967L167.619 228.264L167.426 228.22C166.704 228.033 166.475 230.986 166.475 230.986L166.282 235.242C166.267 235.529 166.323 235.815 166.447 236.074C166.57 236.334 166.757 236.558 166.989 236.728C167.382 237.036 167.847 237.241 168.341 237.322C168.481 237.333 168.617 237.374 168.74 237.442C168.863 237.509 168.97 237.602 169.054 237.714C169.73 238.666 170.655 239.413 171.729 239.872C174.011 240.763 177.292 241.634 178.51 239.901C180.465 237.138 177.265 234.178 177.265 234.178ZM138.841 181.182H138.877H138.841ZM162.719 169.033C162.719 169.033 163.102 170.475 163.785 171.232C164.469 171.99 164.13 176.697 164.13 176.697C163.861 176.714 163.595 176.757 163.334 176.825C162.808 173.696 162.323 170.222 162.719 169.033Z" fill="url(#paint0_linear)"/>
<path d="M129.849 228.351L123.873 228.945L123.707 226.945L123.591 225.569L123.427 223.557L129.074 223.854L129.522 226.437L129.617 226.998H129.62L129.849 228.351Z" fill="#8E6F7F"/>
<path d="M173.369 223.857L173.206 225.866L173.093 227.242L172.923 229.242L166.944 228.648L167.182 227.296L167.274 226.737L167.723 224.155L173.369 223.857Z" fill="#8E6F7F"/>
<path d="M167.036 194.917L149.266 195.752C148.458 195.791 147.649 195.791 146.841 195.752L129.864 194.92V181.47H167.036V194.917Z" fill="#5F5570"/>
<path opacity="0.1" d="M167.036 194.917L149.266 195.752C148.458 195.791 147.649 195.791 146.841 195.752L129.864 194.92V181.47H167.036V194.917Z" fill="black"/>
<path d="M144.28 145.233C144.28 145.233 138.36 147.222 136.131 148.856C135.668 149.195 135.24 149.474 134.865 149.703C133.489 150.552 132.436 151.836 131.873 153.352C131.858 153.394 131.843 153.429 131.828 153.462C131.531 154.131 130.12 158.662 130.12 158.662C130.12 158.662 129.08 161.188 128.931 162.823C128.782 164.457 137.4 168.84 137.4 168.84C137.4 168.84 133.24 177.904 135.097 180.207C136.954 182.51 164.071 183.624 163.476 180.207C162.882 176.789 161.842 171.143 162.362 169.583L171.574 162.897C171.574 162.897 171.203 153.536 168.305 151.085C165.408 148.633 161.768 147.742 161.768 147.742L156 146.256C156 146.256 153.967 151.308 151.738 151.976C149.51 152.645 144.627 149.557 144.28 145.233Z" fill="#EAEAF2"/>
<path opacity="0.1" d="M152.594 153.741C152.594 153.741 150.08 155.839 148.761 153.741C148.761 153.741 147.572 157.289 148.761 158.478L148.716 158.719L148.505 159.777L145.754 182.658L148.018 186.566L152.14 181.395L151.807 160L151.658 158.772L151.623 158.475H152.327C152.327 158.475 154.196 155.245 152.594 153.741Z" fill="black"/>
<path opacity="0.1" d="M153.189 153.741C153.189 153.741 150.675 155.839 149.355 153.741C149.355 153.741 148.166 157.289 149.355 158.478L149.311 158.719L149.1 159.777L146.348 182.658L148.612 186.566L152.734 181.395L152.401 160L152.253 158.772L152.217 158.475H152.921C152.921 158.475 154.79 155.245 153.189 153.741Z" fill="black"/>
<path d="M152.437 181.101L148.315 186.263L146.045 182.376L148.799 159.483L149.01 158.425L149.058 158.181L149.429 157.218L151.92 158.181L151.955 158.478L152.104 159.705L152.437 181.101Z" fill="#BC8487"/>
<path opacity="0.1" d="M129.522 226.434C128.24 226.426 126.961 226.295 125.704 226.045C125.083 225.89 124.304 225.718 123.594 225.566L123.427 223.554L129.074 223.851L129.522 226.434Z" fill="black"/>
<path d="M148.36 195.778C147.866 197.166 133.133 196.922 133.133 196.922C133.133 196.922 132.342 217.724 131.154 220.3C129.965 222.877 129.864 226.143 129.864 226.143C129.864 226.143 127.291 226.143 125.704 225.747C124.117 225.352 121.543 224.856 121.543 224.856L122.239 189.568C122.239 189.568 122.536 189.196 123.228 186.964C123.674 185.529 126.289 183.669 128.099 182.507C129.109 181.871 129.864 181.455 129.864 181.455L138.654 181.812L144.08 182.031C144.08 182.031 148.856 194.391 148.36 195.778Z" fill="#5F5570"/>
<path opacity="0.1" d="M129.852 228.348L123.873 228.942L123.704 226.942C123.928 226.948 124.149 226.997 124.355 227.085C125.445 227.869 128.563 227.245 129.617 226.995L129.852 228.348Z" fill="black"/>
<path d="M130.981 234.127C130.989 234.409 130.927 234.689 130.802 234.942C130.678 235.195 130.493 235.414 130.265 235.581C129.889 235.876 129.444 236.071 128.973 236.148C128.836 236.16 128.704 236.2 128.585 236.267C128.466 236.334 128.362 236.425 128.28 236.534C127.62 237.466 126.715 238.197 125.665 238.647C123.606 239.456 120.708 240.249 119.35 239.01C119.238 238.91 119.139 238.797 119.053 238.674C117.16 235.964 120.281 233.064 120.281 233.064C120.281 233.064 121.689 229.759 122.322 228.238C122.39 228.04 122.5 227.86 122.643 227.707C122.786 227.555 122.959 227.434 123.152 227.354C123.344 227.273 123.552 227.234 123.761 227.238C123.969 227.243 124.175 227.292 124.364 227.382C125.552 228.238 129.157 227.417 129.861 227.236C130.565 227.055 130.791 229.943 130.791 229.943L130.981 234.083C130.98 234.098 130.98 234.113 130.981 234.127Z" fill="#BC8487"/>
<path opacity="0.1" d="M173.372 223.854L173.206 225.863C172.495 226.015 171.72 226.187 171.093 226.342C169.836 226.593 168.559 226.724 167.277 226.734L167.726 224.152L173.372 223.854Z" fill="black"/>
<path d="M175.259 225.153C175.259 225.153 172.686 225.649 171.099 226.045C169.512 226.44 166.938 226.44 166.938 226.44C166.938 226.44 166.84 223.171 165.652 220.598C164.463 218.024 163.67 197.22 163.67 197.22C163.67 197.22 149.768 197.139 149.272 195.752C148.776 194.364 155.331 182.379 155.331 182.379L159.328 182.171L166.938 181.767C166.938 181.767 168.424 182.575 169.981 183.666C171.539 184.756 173.229 186.141 173.577 187.262C174.269 189.493 174.567 189.865 174.567 189.865L175.259 225.153Z" fill="#5F5570"/>
<path opacity="0.1" d="M173.093 227.239L172.926 229.239L166.944 228.645L167.182 227.293C168.237 227.545 171.342 228.166 172.442 227.382C172.648 227.294 172.869 227.245 173.093 227.239Z" fill="black"/>
<path d="M172.442 227.679C172.631 227.589 172.836 227.54 173.046 227.534C173.255 227.529 173.463 227.568 173.656 227.649C173.849 227.73 174.023 227.851 174.166 228.003C174.309 228.156 174.418 228.337 174.486 228.535C175.116 230.056 176.528 233.364 176.528 233.364C176.528 233.364 179.648 236.261 177.755 238.971C176.567 240.671 173.369 239.818 171.146 238.945C170.096 238.496 169.19 237.765 168.531 236.832C168.449 236.722 168.345 236.63 168.225 236.564C168.105 236.497 167.973 236.457 167.836 236.445C167.353 236.361 166.899 236.157 166.516 235.851C166.291 235.684 166.111 235.465 165.991 235.212C165.872 234.959 165.816 234.68 165.83 234.401L166.017 230.241C166.017 230.241 166.24 227.349 166.944 227.53C167.649 227.712 171.253 228.535 172.442 227.679Z" fill="#BC8487"/>
<path d="M157.081 147.742L151.082 154.101L150.915 154.279L150.698 154.151C149.444 153.408 143.171 149.623 143.709 148.484C144.006 147.837 144.181 146.488 144.274 145.326C144.274 145.186 144.291 145.049 144.303 144.916C144.363 143.997 144.378 143.284 144.378 143.284C144.378 143.284 155.67 141.353 155.224 143.284C155.043 144.066 155.313 144.945 155.697 145.715C155.81 145.938 155.934 146.149 156.056 146.348C156.356 146.842 156.699 147.308 157.081 147.742Z" fill="#FFC4D0"/>
<path opacity="0.1" d="M155.697 145.715C154.012 146.956 151.94 147.558 149.853 147.411C147.765 147.265 145.798 146.38 144.303 144.916C144.363 143.997 144.378 143.284 144.378 143.284C144.378 143.284 155.67 141.352 155.224 143.284C155.052 144.072 155.313 144.945 155.697 145.715Z" fill="black"/>
<path d="M159.283 138.318C159.316 140.606 158.458 142.816 156.892 144.483C155.325 146.15 153.172 147.142 150.887 147.251C148.602 147.36 146.364 146.576 144.646 145.066C142.928 143.556 141.864 141.437 141.679 139.156C141.656 138.879 141.644 138.6 141.644 138.318C141.622 137.147 141.834 135.983 142.268 134.895C142.701 133.807 143.347 132.816 144.168 131.98C144.988 131.144 145.967 130.48 147.048 130.026C148.128 129.573 149.288 129.34 150.459 129.34C151.631 129.34 152.79 129.573 153.87 130.026C154.951 130.48 155.93 131.144 156.751 131.98C157.571 132.816 158.217 133.807 158.65 134.895C159.084 135.983 159.296 137.147 159.274 138.318H159.283Z" fill="#FFC4D0"/>
<path opacity="0.1" d="M159.173 136.91C158.944 137.097 158.678 137.233 158.392 137.311C158.106 137.388 157.808 137.404 157.515 137.359C156.154 137.061 155.688 134.981 154.297 134.839C152.906 134.696 151.982 136.622 150.573 136.583C149.979 136.568 149.444 136.179 148.897 135.908C147.941 135.436 146.366 135.148 145.332 135.504C143.777 136.036 143.251 137.474 142.259 138.619C142.089 138.813 141.903 138.993 141.703 139.156C141.679 138.879 141.667 138.6 141.667 138.318C141.647 136.089 142.473 133.934 143.978 132.288C145.483 130.643 147.555 129.628 149.778 129.45C152.001 129.271 154.209 129.942 155.957 131.326C157.705 132.71 158.864 134.705 159.2 136.91H159.173Z" fill="black"/>
<path d="M148.898 135.614C149.444 135.882 149.967 136.274 150.574 136.289C151.979 136.324 152.897 134.39 154.294 134.541C155.691 134.693 156.151 136.755 157.518 137.061C158.437 137.269 159.301 136.583 159.988 135.944C160.431 135.591 160.793 135.146 161.049 134.64C161.346 133.903 161.191 133.053 160.915 132.304C160.639 131.555 160.249 130.836 160.113 130.048C159.946 129.103 160.139 128.069 159.691 127.219C159.505 126.898 159.25 126.622 158.945 126.412C158.64 126.201 158.291 126.061 157.925 126.001C157.19 125.887 156.438 125.972 155.747 126.248C155.411 126.411 155.047 126.512 154.674 126.545C154.402 126.528 154.136 126.463 153.887 126.352C153.027 126.013 152.211 125.573 151.456 125.041C150.915 124.609 150.335 124.227 149.724 123.9C149.417 123.739 149.078 123.648 148.731 123.634C148.385 123.62 148.04 123.684 147.721 123.82C146.651 124.367 146.446 125.9 145.45 126.563C144.764 127.026 143.87 126.979 143.043 127.011C142.217 127.044 141.26 127.243 140.868 127.965C140.517 128.586 140.693 129.35 140.737 130.06C140.782 130.808 140.669 131.557 140.408 132.259C139.947 133.49 139.011 134.702 139.344 135.974C139.561 136.809 140.309 137.501 140.265 138.351C140.23 138.57 140.211 138.792 140.208 139.014C140.209 139.126 140.249 139.234 140.319 139.32C140.39 139.407 140.488 139.466 140.598 139.489C140.717 139.488 140.833 139.451 140.931 139.382C141.425 139.106 141.868 138.747 142.241 138.321C143.245 137.174 143.765 135.739 145.32 135.207C146.369 134.859 147.941 135.139 148.898 135.614Z" fill="#8E6F7F"/>
<path d="M159.123 187.487L157.518 187.924L153.813 188.943C152.955 189.582 151.99 190.062 150.963 190.361C148.695 190.934 147.23 189.686 146.012 187.755C145.522 186.982 145.768 186.364 146.41 185.88C147.955 184.712 151.777 184.331 152.948 184.486C153.717 184.549 154.49 184.428 155.203 184.135C155.71 183.951 156.198 183.72 156.662 183.446L159.123 187.487Z" fill="#FFC4D0"/>
<path opacity="0.1" d="M159.123 187.487L157.518 187.924C157.058 186.536 156.3 184.795 155.215 184.126C155.722 183.942 156.21 183.711 156.674 183.437L159.123 187.487Z" fill="black"/>
<path opacity="0.1" d="M169.975 183.666C169.31 184.204 168.745 184.694 168.745 184.694C168.745 184.694 161.019 187.116 159.533 190.162C159.533 190.162 158.344 184.219 155.818 184.144C155.818 184.144 158.538 183.077 159.322 182.165L166.938 181.767C166.938 181.767 168.424 182.575 169.975 183.666Z" fill="black"/>
<path d="M169.86 160.371L171.568 162.897L172.088 170.772C172.088 170.772 172.237 178.35 172.088 178.647L172.237 178.35C172.237 178.35 171.94 181.321 171.048 181.841C170.157 182.361 168.151 184.1 168.151 184.1C168.151 184.1 160.425 186.522 158.939 189.568C158.939 189.568 157.75 183.624 155.224 183.55C155.224 183.55 159.013 182.064 158.939 181.098C158.939 181.098 161.836 178.498 162.059 177.83C162.282 177.161 163.729 177.087 163.729 177.087C163.729 177.087 164.065 172.481 163.396 171.738C162.728 170.995 162.356 169.583 162.356 169.583L169.86 160.371Z" fill="#EAEAF2"/>
<path opacity="0.1" d="M150.963 190.352C148.695 190.926 147.23 189.677 146.012 187.746C145.522 186.973 145.768 186.355 146.41 185.871L146.642 185.963C146.642 185.963 150.728 187.734 150.963 190.352Z" fill="black"/>
<path d="M150.024 192.726C147.349 196.441 142.372 191.276 142 190.236C141.867 189.859 141.358 189.523 140.773 189.253C140.03 188.928 139.259 188.672 138.47 188.489L142.892 184.887L143.739 185.226L146.345 186.269C146.345 186.269 152.698 189.012 150.024 192.726Z" fill="#FFC4D0"/>
<path opacity="0.1" d="M143.739 185.226C141.302 186.385 140.782 188.052 140.767 189.253C140.024 188.928 139.253 188.672 138.464 188.489L142.886 184.887L143.739 185.226Z" fill="black"/>
<path opacity="0.1" d="M139.846 191.648C139.846 191.648 132.714 186.002 129.297 183.55C128.869 183.245 128.471 182.901 128.108 182.522C129.118 181.886 129.873 181.47 129.873 181.47L138.663 181.826C138.898 182.234 139.038 182.51 139.038 182.51L143.792 185.63C138.063 187.487 139.846 191.648 139.846 191.648Z" fill="black"/>
<path d="M130.337 162.005L128.925 162.823C128.925 162.823 127.216 168.246 127.662 171.812C127.662 171.812 126.325 176.938 126.845 177.755C126.845 177.755 126.176 180.504 129.594 182.956C133.011 185.407 140.143 191.053 140.143 191.053C140.143 191.053 138.36 186.893 144.08 185.036L139.326 181.916C139.326 181.916 137.73 178.748 136.206 178.052C136.206 178.052 135.017 176.864 135.76 176.047C136.503 175.229 137.097 174.338 137.097 173.521C137.097 172.703 137.394 168.84 137.394 168.84L138.286 164.68L130.337 162.005Z" fill="#EAEAF2"/>
<path opacity="0.1" d="M151.955 158.475H149.058C149.041 158.459 149.025 158.441 149.01 158.422L149.058 158.178L149.429 157.215L151.92 158.178L151.955 158.475Z" fill="black"/>
<path d="M152.891 153.444C152.891 153.444 150.377 155.542 149.058 153.444C149.058 153.444 147.869 156.992 149.058 158.181H152.624C152.624 158.181 154.493 154.948 152.891 153.444Z" fill="#BC8487"/>
<path opacity="0.1" d="M156.291 146.553L160.035 147.519C160.035 147.519 156.487 156.731 155.706 156.731L151.212 154.576L156.291 146.553Z" fill="black"/>
<path opacity="0.1" d="M157.081 147.742L151.082 154.101L150.915 154.279L150.698 154.151L155.943 146.152L156.071 146.363C156.367 146.851 156.705 147.312 157.081 147.742Z" fill="black"/>
<path d="M155.994 146.256L159.738 147.221C159.738 147.221 156.19 156.434 155.408 156.434L150.915 154.279L155.994 146.256Z" fill="#EAEAF2"/>
<path opacity="0.1" d="M143.982 145.531L140.737 146.553C140.737 146.553 143.932 156.211 144.823 156.731L150.618 154.576L143.982 145.531Z" fill="black"/>
<path opacity="0.1" d="M151.082 154.101L150.915 154.279C150.915 154.279 143.115 149.747 143.709 148.484C144.006 147.837 144.181 146.488 144.274 145.326V145.144L151.082 154.101Z" fill="black"/>
<path d="M144.28 145.233L141.035 146.256C141.035 146.256 144.229 155.914 145.121 156.434L150.915 154.279L144.28 145.233Z" fill="#EAEAF2"/>
<path opacity="0.1" d="M136.55 161.01C136.55 161.01 138.506 161.358 138.47 163.387C138.434 165.417 139.275 160.763 139.275 160.763L136.55 161.01Z" fill="black"/>
<path opacity="0.1" d="M136.996 167.25C136.996 167.25 136.452 170.32 136.996 173.096C137.54 175.871 137.492 176.81 137.914 176.959C138.336 177.107 136.996 167.25 136.996 167.25Z" fill="black"/>
<path opacity="0.1" d="M161.958 166.953C161.802 166.973 161.652 167.027 161.519 167.111C161.386 167.195 161.273 167.307 161.188 167.439C161.103 167.571 161.048 167.721 161.027 167.876C161.006 168.032 161.02 168.191 161.066 168.341C161.316 169.583 161.958 166.953 161.958 166.953Z" fill="black"/>
<path opacity="0.1" d="M127.983 177.354C127.983 177.354 134.351 176.81 135.412 177.948C136.473 179.087 127.983 177.354 127.983 177.354Z" fill="black"/>
<path opacity="0.1" d="M164.93 177.785C164.93 177.785 169.586 177.211 170.677 178.005L164.93 177.785Z" fill="black"/>
<path opacity="0.1" d="M166.814 178.543C166.814 178.543 169.586 178.641 170.231 178.988L166.814 178.543Z" fill="black"/>
<path opacity="0.1" d="M167.357 179.538C167.357 179.538 169.883 179.44 170.231 179.835L167.357 179.538Z" fill="black"/>
<path opacity="0.1" d="M131.736 193.505C131.736 193.505 133.9 194.631 133.68 195.781C133.46 196.931 131.736 193.505 131.736 193.505Z" fill="black"/>
<path opacity="0.1" d="M129.864 194.052C129.864 194.052 133.166 198.334 132.717 199.745C132.268 201.157 129.864 194.052 129.864 194.052Z" fill="black"/>
<path opacity="0.1" d="M165.253 194.762C165.253 194.762 163.619 196.108 163.664 197.22L165.253 194.762Z" fill="black"/>
<path opacity="0.1" d="M127.514 221.29C127.514 221.29 127.514 222.553 129.852 224.41L127.514 221.29Z" fill="black"/>
<path opacity="0.1" d="M168.793 218.318C168.793 218.318 168.543 220.945 166.267 222.306L168.793 218.318Z" fill="black"/>
<g opacity="0.1">
<path opacity="0.1" d="M140.737 129.157C140.737 128.952 140.702 128.741 140.684 128.533C140.646 128.987 140.66 129.443 140.726 129.894C140.746 129.649 140.75 129.402 140.737 129.157Z" fill="black"/>
<path opacity="0.1" d="M140.265 137.46C140.309 136.598 139.561 135.905 139.344 135.082C139.333 135.042 139.325 135.002 139.32 134.96C139.252 135.296 139.26 135.642 139.344 135.974C139.519 136.654 140.048 137.237 140.214 137.896C140.229 137.742 140.259 137.602 140.265 137.46Z" fill="black"/>
<path opacity="0.1" d="M161.049 133.748C160.792 134.254 160.431 134.699 159.988 135.053C159.295 135.692 158.437 136.378 157.518 136.17C156.154 135.873 155.685 133.793 154.294 133.65C152.903 133.507 151.979 135.433 150.574 135.394C149.979 135.379 149.444 134.99 148.898 134.72C147.941 134.247 146.369 133.959 145.332 134.316C143.777 134.848 143.251 136.286 142.253 137.43C141.88 137.856 141.438 138.216 140.945 138.494C140.846 138.56 140.729 138.596 140.61 138.598C140.535 138.588 140.465 138.558 140.406 138.51C140.347 138.463 140.303 138.401 140.277 138.33V138.351C140.242 138.571 140.223 138.794 140.22 139.017C140.222 139.128 140.261 139.235 140.332 139.321C140.403 139.407 140.501 139.466 140.61 139.489C140.729 139.487 140.846 139.451 140.945 139.385C141.438 139.107 141.88 138.747 142.253 138.321C143.257 137.177 143.777 135.739 145.332 135.207C146.381 134.851 147.953 135.139 148.898 135.611C149.444 135.882 149.967 136.271 150.574 136.286C151.979 136.321 152.897 134.387 154.294 134.541C155.691 134.696 156.154 136.752 157.518 137.061C158.437 137.269 159.301 136.583 159.988 135.944C160.431 135.59 160.792 135.145 161.049 134.64C161.214 134.21 161.258 133.743 161.176 133.29C161.151 133.447 161.108 133.601 161.049 133.748Z" fill="black"/>
</g>
<path opacity="0.1" d="M120.284 233.067C120.284 233.067 122.711 232.318 123.719 233.738L120.284 233.067Z" fill="black"/>
<path opacity="0.1" d="M176.528 233.364C176.528 233.364 172.507 233.129 172.665 234.217L176.528 233.364Z" fill="black"/>
<path opacity="0.1" d="M256.801 231.162C261.221 231.162 264.804 230.556 264.804 229.81C264.804 229.063 261.221 228.458 256.801 228.458C252.381 228.458 248.798 229.063 248.798 229.81C248.798 230.556 252.381 231.162 256.801 231.162Z" fill="#E05ABC"/>
<path opacity="0.1" d="M27.0688 242.258C31.4885 242.258 35.0714 241.652 35.0714 240.906C35.0714 240.159 31.4885 239.554 27.0688 239.554C22.649 239.554 19.0661 240.159 19.0661 240.906C19.0661 241.652 22.649 242.258 27.0688 242.258Z" fill="#E05ABC"/>
<path opacity="0.1" d="M58.0244 249.512C62.4442 249.512 66.0271 248.906 66.0271 248.16C66.0271 247.413 62.4442 246.807 58.0244 246.807C53.6047 246.807 50.0218 247.413 50.0218 248.16C50.0218 248.906 53.6047 249.512 58.0244 249.512Z" fill="#E05ABC"/>
<path d="M239.283 246.32C245.882 246.32 251.232 245.415 251.232 244.299C251.232 243.183 245.882 242.279 239.283 242.279C232.684 242.279 227.334 243.183 227.334 244.299C227.334 245.415 232.684 246.32 239.283 246.32Z" fill="#E05ABC"/>
<path d="M244.225 240.995C244.77 240.55 245.166 239.95 245.363 239.274C245.512 238.594 245.221 237.789 244.567 237.524C243.836 237.245 243.054 237.753 242.463 238.264C241.872 238.775 241.191 239.361 240.415 239.251C240.815 238.89 241.113 238.431 241.283 237.92C241.452 237.409 241.486 236.863 241.381 236.335C241.346 236.116 241.253 235.911 241.111 235.741C240.707 235.307 239.97 235.491 239.485 235.836C237.94 236.921 237.509 239.022 237.5 240.909C237.343 240.228 237.476 239.518 237.471 238.829C237.465 238.139 237.277 237.343 236.686 236.977C236.321 236.781 235.911 236.685 235.497 236.698C234.802 236.671 234.029 236.743 233.554 237.251C232.96 237.881 233.12 238.939 233.631 239.628C234.142 240.317 234.924 240.76 235.643 241.239C236.218 241.582 236.709 242.05 237.078 242.609C237.123 242.687 237.159 242.769 237.185 242.855H241.527C242.506 242.359 243.413 241.734 244.225 240.995Z" fill="#E05ABC"/>
<path d="M58.4375 214.931C58.4375 214.931 60.0719 217.067 57.6857 220.28C55.2995 223.492 53.3322 226.223 54.1197 228.235C54.1197 228.235 57.7214 222.247 60.6574 222.164C63.5933 222.08 61.6618 218.532 58.4375 214.931Z" fill="#E05ABC"/>
<path opacity="0.1" d="M58.4375 214.931C58.5801 215.137 58.6921 215.364 58.7704 215.602C61.6291 218.96 63.1536 222.095 60.4048 222.172C57.8462 222.247 54.7765 226.823 54.0395 227.979C54.0633 228.068 54.093 228.154 54.1257 228.244C54.1257 228.244 57.7273 222.256 60.6633 222.172C63.5993 222.089 61.6618 218.532 58.4375 214.931Z" fill="black"/>
<path d="M61.4715 217.653C61.4715 218.404 61.3883 219.014 61.2843 219.014C61.1803 219.014 61.0971 218.404 61.0971 217.653C61.0971 216.901 61.2011 217.254 61.3051 217.254C61.4091 217.254 61.4715 216.901 61.4715 217.653Z" fill="#FFD037"/>
<path d="M62.5146 218.55C61.8549 218.91 61.2784 219.127 61.2308 219.034C61.1833 218.942 61.6736 218.577 62.3333 218.217C62.993 217.858 62.7345 218.119 62.782 218.217C62.8296 218.315 63.1743 218.19 62.5146 218.55Z" fill="#FFD037"/>
<path d="M49.8167 214.931C49.8167 214.931 48.1823 217.067 50.5686 220.28C52.9548 223.492 54.922 226.223 54.1346 228.235C54.1346 228.235 50.5359 222.247 47.5969 222.164C44.6579 222.08 46.5865 218.532 49.8167 214.931Z" fill="#E05ABC"/>
<path opacity="0.1" d="M49.8167 214.931C49.6738 215.138 49.5607 215.364 49.4809 215.602C46.6222 218.96 45.1007 222.095 47.8465 222.172C50.4081 222.247 53.4778 226.823 54.2148 227.979C54.1904 228.069 54.1606 228.157 54.1256 228.244C54.1256 228.244 50.5269 222.256 47.588 222.172C44.649 222.089 46.5865 218.532 49.8167 214.931Z" fill="black"/>
<path d="M46.7797 217.653C46.7797 218.404 46.8659 219.014 46.9699 219.014C47.0739 219.014 47.1571 218.404 47.1571 217.653C47.1571 216.901 47.0531 217.254 46.9491 217.254C46.8451 217.254 46.7797 216.901 46.7797 217.653Z" fill="#FFD037"/>
<path d="M45.7397 218.55C46.3994 218.91 46.9729 219.127 47.0234 219.034C47.0739 218.942 46.5777 218.577 45.918 218.217C45.2583 217.858 45.5198 218.119 45.4693 218.217C45.4187 218.315 45.08 218.19 45.7397 218.55Z" fill="#FFD037"/>
<path d="M47.2997 227.964C47.2997 227.964 51.8642 227.822 53.243 226.844C54.6219 225.866 60.2651 224.692 60.6038 226.264C60.9426 227.836 67.4654 234.077 62.3125 234.119C57.1597 234.16 50.3368 233.316 48.9639 232.481C47.591 231.646 47.2997 227.964 47.2997 227.964Z" fill="#A8A8A8"/>
<path opacity="0.2" d="M62.4017 233.572C57.2488 233.613 50.4259 232.769 49.053 231.934C48.01 231.295 47.591 229.01 47.4513 227.958H47.2997C47.2997 227.958 47.5969 231.637 48.9609 232.475C50.3249 233.313 57.1567 234.154 62.3096 234.113C63.7954 234.113 64.3095 233.572 64.2827 232.787C64.0747 233.269 63.5071 233.563 62.4017 233.572Z" fill="black"/>
</g>
<defs>
<linearGradient id="paint0_linear" x1="117.651" y1="181.502" x2="179.149" y2="181.502" gradientUnits="userSpaceOnUse">
<stop stop-color="#808080" stop-opacity="0.25"/>
<stop offset="0.54" stop-color="#808080" stop-opacity="0.12"/>
<stop offset="1" stop-color="#808080" stop-opacity="0.1"/>
</linearGradient>
<clipPath id="clip0">
<rect width="300" height="249.512" fill="white"/>
</clipPath>
</defs>
</svg>
